<?xml version="1.0" encoding="utf-8"?>
<!-- Generator: Adobe Illustrator 19.0.0, SVG Export Plug-In . SVG Version: 6.00 Build 0)  -->
<svg version="1.1" id="Capa_1" xmlns="http://www.w3.org/2000/svg" xmlns:xlink="http://www.w3.org/1999/xlink" x="0px" y="0px"
	 viewBox="172 362 70 70" style="enable-background:new 172 362 70 70;" xml:space="preserve">
<style type="text/css">
	.st0{fill:#D7BFA5;}
</style>
<g>
	<path class="st0" d="M237.3,379.4c-3.1-5.4-7.4-9.6-12.7-12.7c-5.4-3.1-11.2-4.7-17.6-4.7c-6.3,0-12.2,1.6-17.6,4.7
		c-5.4,3.1-9.6,7.4-12.7,12.7c-3.1,5.4-4.7,11.2-4.7,17.6c0,6.3,1.6,12.2,4.7,17.6c3.1,5.4,7.4,9.6,12.7,12.7
		c5.4,3.1,11.2,4.7,17.6,4.7s12.2-1.6,17.6-4.7c5.4-3.1,9.6-7.4,12.7-12.7c3.1-5.4,4.7-11.2,4.7-17.6
		C242,390.7,240.4,384.8,237.3,379.4z"/>
</g>
</svg>
