<?xml version="1.0" encoding="utf-8"?>
<!-- Generator: Adobe Illustrator 17.0.0, SVG Export Plug-In . SVG Version: 6.00 Build 0)  -->
<!DOCTYPE svg PUBLIC "-//W3C//DTD SVG 1.1//EN" "http://www.w3.org/Graphics/SVG/1.1/DTD/svg11.dtd">
<svg version="1.1" id="Capa_1" xmlns="http://www.w3.org/2000/svg" xmlns:xlink="http://www.w3.org/1999/xlink" x="0px" y="0px"
	 width="86.5px" height="31.5px" viewBox="0 0 86.5 31.5" enable-background="new 0 0 86.5 31.5" xml:space="preserve">
<path d="M16.899,0L81.75,0c2.619,0,4.75,2.131,4.75,4.75v22c0,2.619-2.131,4.75-4.75,4.75H16.899c-0.87,0-1.731-0.249-2.491-0.719
	l-0.113-0.085L1.414,18.854C0.495,17.935,0,16.742,0,15.474c0-1.269,0.494-2.462,1.391-3.359l12.61-11.12
	C14.718,0.362,15.774,0,16.899,0z M81.75,30c1.792,0,3.25-1.458,3.25-3.25v-22c0-1.792-1.458-3.25-3.25-3.25H16.899
	c-0.742,0-1.472,0.237-1.905,0.619L2.418,13.207c-0.58,0.582-0.917,1.398-0.917,2.266c0,0.868,0.338,1.684,0.952,2.298l12.804,11.77
	C15.765,29.842,16.331,30,16.9,30H81.75z"/>
</svg>
